<svg width="27" height="27" viewBox="0 0 27 27" fill="none" xmlns="http://www.w3.org/2000/svg">
<path d="M1.87015 25.1373C2.09696 18.9191 7.22668 13.9303 13.5 13.9303C19.7733 13.9303 24.902 18.9191 25.1299 25.1373H1.87015ZM7.89863 7.46303C7.89863 4.37354 10.4116 1.86167 13.5 1.86167C16.5884 1.86167 19.1014 4.37354 19.1014 7.46303C19.1014 10.5515 16.5884 13.0633 13.5 13.0633C10.4116 13.0633 7.89863 10.5515 7.89863 7.46303ZM16.1412 13.3559C18.3913 12.3426 19.963 10.0851 19.963 7.46303C19.963 3.89872 17.0643 1 13.5 1C9.93569 1 7.03591 3.89872 7.03591 7.46303C7.03591 10.0851 8.60874 12.3426 10.8578 13.3559C5.23096 14.5715 1 19.5825 1 25.5686C1 25.8071 1.19289 26 1.4303 26H25.5686C25.8071 26 26 25.8071 26 25.5686C26 19.5825 21.769 14.5715 16.1412 13.3559Z" fill="#80A344" stroke="#80A344"/>
</svg>
