<svg width="137" height="26" viewBox="0 0 137 26" fill="none" xmlns="http://www.w3.org/2000/svg">
<path d="M13.5094 7.05469C15.35 7.05469 17.0938 8.02344 18.0625 9.37969L18.1594 9.47656C18.2078 9.525 18.2563 9.57344 18.2563 9.62188C18.8859 10.4453 19.9031 10.9297 21.0172 10.9297C22.9547 10.9297 24.5531 9.33125 24.5531 7.39375C24.5531 6.47344 24.2141 5.65 23.6328 5.02031C21.2109 2.01719 18.3047 0.273438 13.4609 0.273438C5.85625 0.273438 0.140625 5.55313 0.140625 12.9641C0.140625 20.4719 5.85625 25.7516 13.5094 25.7516C18.4016 25.7516 21.2594 24.0563 23.6813 21.3438C24.2141 20.7141 24.5531 19.9391 24.5531 19.0672C24.5531 17.1297 23.0031 15.5797 21.0656 15.5797C20 15.5797 19.0797 16.0641 18.45 16.7906C17.2875 17.9531 15.9797 19.0672 13.5578 19.0672C10.0703 19.0672 8.08438 16.5484 8.08438 12.9641C8.03594 9.525 9.97344 7.05469 13.5094 7.05469ZM46.4953 1.87188C45.2844 1.24219 44.4609 1.09688 42.6688 1.24219C39.4719 1.53281 37.0016 3.76094 36.5656 4.29375C36.4203 2.25938 34.725 0.6125 32.6422 0.6125C30.4625 0.6125 28.7188 2.35625 28.6703 4.4875V21.7797C28.7188 23.9109 30.4625 25.6063 32.6422 25.6063C34.8219 25.6063 36.5656 23.8625 36.6141 21.7313V17.0328C36.6141 10.6391 40.3438 8.99219 42.4266 8.94375C42.9594 8.94375 44.3641 9.47656 45.4781 9.28281C47.6578 8.89531 49.0625 6.8125 48.675 4.68125C48.3844 3.42188 47.5609 2.40469 46.4953 1.87188ZM63.8359 19.2609C67.275 19.2609 69.3094 16.7422 69.3578 13.1094C69.3578 9.42813 67.275 6.95781 63.8359 6.95781C60.3969 6.95781 58.2656 9.42813 58.2656 13.1094C58.2656 16.6938 60.3969 19.2609 63.8359 19.2609ZM63.8359 0.273438C71.3922 0.273438 77.2531 5.60156 77.2531 13.0609C77.2531 20.4719 71.3922 25.7516 63.8359 25.7516C56.2797 25.7516 50.3703 20.4719 50.3703 13.0609C50.3703 5.60156 56.2797 0.273438 63.8359 0.273438ZM94.6906 7.05469C96.5313 7.05469 98.275 8.02344 99.2438 9.37969L99.3406 9.47656C99.3891 9.525 99.4375 9.57344 99.4375 9.62188C100.067 10.4453 101.084 10.9297 102.198 10.9297C104.136 10.9297 105.734 9.33125 105.734 7.39375C105.734 6.47344 105.395 5.65 104.814 5.02031C102.392 2.01719 99.4859 0.273438 94.6906 0.273438C87.0859 0.273438 81.3219 5.55313 81.3219 12.9641C81.3219 20.4719 87.0375 25.7516 94.6906 25.7516C99.5828 25.7516 102.441 24.0563 104.863 21.3438C105.395 20.7141 105.734 19.9391 105.734 19.0672C105.734 17.1297 104.184 15.5797 102.247 15.5797C101.181 15.5797 100.261 16.0641 99.6313 16.7906C98.4688 17.9531 97.1609 19.0672 94.6906 19.0672C91.2031 19.0672 89.2172 16.5484 89.2172 12.9641C89.2656 9.525 91.2031 7.05469 94.6906 7.05469ZM121.864 9.96094C125.4 10.7844 129.856 12.4313 129.856 17.6625C129.856 22.1188 127.531 25.8 119.83 25.8C115.131 25.8 112.08 24.3469 109.948 22.4578L109.803 22.3125C109.706 22.2641 109.658 22.1672 109.609 22.1188C109.561 22.0703 109.513 21.9734 109.464 21.925C109.367 21.8281 109.319 21.7313 109.27 21.6344C109.27 21.6344 109.222 21.5859 109.222 21.5375C108.592 20.375 108.738 18.9219 109.706 17.9531C110.869 16.7422 112.806 16.6938 114.017 17.8078L113.969 17.7594C115.519 18.9703 117.359 19.6969 119.345 19.6969C121.864 19.6969 122.688 19.2125 122.688 18.1953C122.688 16.8391 121.138 16.8391 117.166 15.8219C113.823 14.95 110.094 13.1094 110.094 8.02344C110.094 2.50156 114.308 0.273438 119.539 0.273438C123.559 0.273438 126.417 1.58125 128.403 3.61563C129.033 4.14844 129.42 4.97188 129.42 5.84375C129.42 7.53906 128.064 8.89531 126.369 8.89531C125.545 8.89531 124.819 8.60469 124.286 8.07188C123.123 7.10313 121.428 6.23125 119.588 6.23125C117.844 6.23125 116.972 6.71563 116.972 7.68438C116.972 9.04063 118.522 9.23438 121.864 9.96094ZM132.472 1.48438V0.854688H129.905V1.48438H130.825V4.00313H131.6V1.48438H132.472ZM135.814 4.00313V1.775L134.991 4.00313H134.458L133.634 1.775V4.00313H132.908V0.854688H133.973L134.748 2.9375L135.523 0.854688H136.541V4.00313H135.814Z" fill="white"/>
</svg>
