<svg width="137" height="26" viewBox="0 0 137 26" fill="none" xmlns="http://www.w3.org/2000/svg">
<path d="M13.3688 6.78125C15.2094 6.78125 16.9531 7.75 17.9219 9.10625L18.0187 9.20313C18.0672 9.25156 18.1156 9.3 18.1156 9.34844C18.7453 10.1719 19.7625 10.6563 20.8766 10.6563C22.8141 10.6563 24.4125 9.05781 24.4125 7.12031C24.4125 6.2 24.0734 5.37656 23.4922 4.74688C21.0703 1.74375 18.1641 0 13.3203 0C5.71562 0 0 5.27969 0 12.6906C0 20.1984 5.71563 25.4781 13.3688 25.4781C18.2609 25.4781 21.1188 23.7828 23.5406 21.0703C24.0734 20.4406 24.4125 19.6656 24.4125 18.7938C24.4125 16.8563 22.8625 15.3063 20.925 15.3063C19.8594 15.3063 18.9391 15.7906 18.3094 16.5172C17.1469 17.6797 15.8391 18.7938 13.4172 18.7938C9.92969 18.7938 7.94375 16.275 7.94375 12.6906C7.89531 9.25156 9.83281 6.78125 13.3688 6.78125ZM46.3547 1.59844C45.1438 0.968752 44.3203 0.823438 42.5281 0.96875C39.3313 1.25938 36.8609 3.4875 36.425 4.02031C36.2797 1.98594 34.5844 0.339063 32.5016 0.339063C30.3219 0.339063 28.5781 2.08281 28.5297 4.21406V21.5063C28.5781 23.6375 30.3219 25.3328 32.5016 25.3328C34.6813 25.3328 36.425 23.5891 36.4734 21.4578V16.7594C36.4734 10.3656 40.2031 8.71875 42.2859 8.67031C42.8188 8.67031 44.2234 9.20313 45.3375 9.00938C47.5172 8.62188 48.9219 6.53906 48.5344 4.40781C48.2438 3.14844 47.4203 2.13125 46.3547 1.59844ZM63.6953 18.9875C67.1344 18.9875 69.1688 16.4688 69.2172 12.8359C69.2172 9.15469 67.1344 6.68438 63.6953 6.68438C60.2563 6.68438 58.125 9.15469 58.125 12.8359C58.125 16.4203 60.2563 18.9875 63.6953 18.9875ZM63.6953 0C71.2516 0 77.1125 5.32813 77.1125 12.7875C77.1125 20.1984 71.2516 25.4781 63.6953 25.4781C56.1391 25.4781 50.2297 20.1984 50.2297 12.7875C50.2297 5.32813 56.1391 0 63.6953 0ZM94.55 6.78125C96.3906 6.78125 98.1344 7.75 99.1031 9.10625L99.2 9.20313C99.2484 9.25156 99.2969 9.3 99.2969 9.34844C99.9266 10.1719 100.944 10.6563 102.058 10.6563C103.995 10.6563 105.594 9.05781 105.594 7.12031C105.594 6.2 105.255 5.37656 104.673 4.74688C102.252 1.74375 99.3453 0 94.55 0C86.9453 0 81.1813 5.27969 81.1813 12.6906C81.1813 20.1984 86.8969 25.4781 94.55 25.4781C99.4422 25.4781 102.3 23.7828 104.722 21.0703C105.255 20.4406 105.594 19.6656 105.594 18.7938C105.594 16.8563 104.044 15.3063 102.106 15.3063C101.041 15.3063 100.12 15.7906 99.4906 16.5172C98.3281 17.6797 97.0203 18.7938 94.55 18.7938C91.0625 18.7938 89.0766 16.275 89.0766 12.6906C89.125 9.25156 91.0625 6.78125 94.55 6.78125ZM121.723 9.6875C125.259 10.5109 129.716 12.1578 129.716 17.3891C129.716 21.8453 127.391 25.5266 119.689 25.5266C114.991 25.5266 111.939 24.0734 109.808 22.1844L109.663 22.0391C109.566 21.9906 109.517 21.8938 109.469 21.8453C109.42 21.7969 109.372 21.7 109.323 21.6516C109.227 21.5547 109.178 21.4578 109.13 21.3609C109.13 21.3609 109.081 21.3125 109.081 21.2641C108.452 20.1016 108.597 18.6484 109.566 17.6797C110.728 16.4688 112.666 16.4203 113.877 17.5344L113.828 17.4859C115.378 18.6969 117.219 19.4234 119.205 19.4234C121.723 19.4234 122.547 18.9391 122.547 17.9219C122.547 16.5656 120.997 16.5656 117.025 15.5484C113.683 14.6766 109.953 12.8359 109.953 7.75C109.953 2.22813 114.167 0 119.398 0C123.419 0 126.277 1.30781 128.263 3.34219C128.892 3.875 129.28 4.69844 129.28 5.57031C129.28 7.26563 127.923 8.62188 126.228 8.62188C125.405 8.62188 124.678 8.33125 124.145 7.79844C122.983 6.82969 121.288 5.95781 119.447 5.95781C117.703 5.95781 116.831 6.44219 116.831 7.41094C116.831 8.76719 118.381 8.96094 121.723 9.6875ZM132.331 1.21094V0.58125H129.764V1.21094H130.684V3.72969H131.459V1.21094H132.331ZM135.673 3.72969V1.50156L134.85 3.72969H134.317L133.494 1.50156V3.72969H132.767V0.58125H133.833L134.608 2.66406L135.383 0.58125H136.4V3.72969H135.673Z" fill="#222222"/>
</svg>
