<svg width="30" height="22" viewBox="0 0 30 22" fill="none" xmlns="http://www.w3.org/2000/svg">
<path d="M28.6875 0H1.0625C0.780707 0 0.510456 0.111942 0.311199 0.311199C0.111942 0.510457 0 0.780707 0 1.0625C0 1.34429 0.111942 1.61454 0.311199 1.8138C0.510456 2.01306 0.780707 2.125 1.0625 2.125H28.6875C28.9693 2.125 29.2395 2.01306 29.4388 1.8138C29.6381 1.61454 29.75 1.34429 29.75 1.0625C29.75 0.780707 29.6381 0.510457 29.4388 0.311199C29.2395 0.111942 28.9693 0 28.6875 0Z" fill="#222222"/>
<path d="M1.0625 11.6875H14.875C15.1568 11.6875 15.427 11.5756 15.6263 11.3763C15.8256 11.177 15.9375 10.9068 15.9375 10.625C15.9375 10.3432 15.8256 10.073 15.6263 9.8737C15.427 9.67444 15.1568 9.5625 14.875 9.5625H1.0625C0.780707 9.5625 0.510456 9.67444 0.311199 9.8737C0.111942 10.073 0 10.3432 0 10.625C0 10.9068 0.111942 11.177 0.311199 11.3763C0.510456 11.5756 0.780707 11.6875 1.0625 11.6875Z" fill="#222222"/>
<path d="M24.4375 19.125H1.0625C0.780707 19.125 0.510456 19.2369 0.311199 19.4362C0.111942 19.6355 0 19.9057 0 20.1875C0 20.4693 0.111942 20.7395 0.311199 20.9388C0.510456 21.1381 0.780707 21.25 1.0625 21.25H24.4375C24.7193 21.25 24.9895 21.1381 25.1888 20.9388C25.3881 20.7395 25.5 20.4693 25.5 20.1875C25.5 19.9057 25.3881 19.6355 25.1888 19.4362C24.9895 19.2369 24.7193 19.125 24.4375 19.125Z" fill="#222222"/>
</svg>
