<svg width="30" height="22" viewBox="0 0 30 22" fill="none" xmlns="http://www.w3.org/2000/svg">
<path d="M28.6875 0.4375H1.0625C0.780707 0.4375 0.510456 0.549442 0.311199 0.748699C0.111942 0.947957 0 1.21821 0 1.5C0 1.78179 0.111942 2.05204 0.311199 2.2513C0.510456 2.45056 0.780707 2.5625 1.0625 2.5625H28.6875C28.9693 2.5625 29.2395 2.45056 29.4388 2.2513C29.6381 2.05204 29.75 1.78179 29.75 1.5C29.75 1.21821 29.6381 0.947957 29.4388 0.748699C29.2395 0.549442 28.9693 0.4375 28.6875 0.4375Z" fill="white"/>
<path d="M1.0625 12.125H14.875C15.1568 12.125 15.427 12.0131 15.6263 11.8138C15.8256 11.6145 15.9375 11.3443 15.9375 11.0625C15.9375 10.7807 15.8256 10.5105 15.6263 10.3112C15.427 10.1119 15.1568 10 14.875 10H1.0625C0.780707 10 0.510456 10.1119 0.311199 10.3112C0.111942 10.5105 0 10.7807 0 11.0625C0 11.3443 0.111942 11.6145 0.311199 11.8138C0.510456 12.0131 0.780707 12.125 1.0625 12.125Z" fill="white"/>
<path d="M24.4375 19.5625H1.0625C0.780707 19.5625 0.510456 19.6744 0.311199 19.8737C0.111942 20.073 0 20.3432 0 20.625C0 20.9068 0.111942 21.177 0.311199 21.3763C0.510456 21.5756 0.780707 21.6875 1.0625 21.6875H24.4375C24.7193 21.6875 24.9895 21.5756 25.1888 21.3763C25.3881 21.177 25.5 20.9068 25.5 20.625C25.5 20.3432 25.3881 20.073 25.1888 19.8737C24.9895 19.6744 24.7193 19.5625 24.4375 19.5625Z" fill="white"/>
</svg>
