<svg width="21" height="21" viewBox="0 0 21 21" fill="none" xmlns="http://www.w3.org/2000/svg">
<g clip-path="url(#clip0_4340_7381)">
<path d="M20.3684 11.0142C20.3684 5.71016 15.9724 1.41016 10.5504 1.41016C5.12842 1.41016 0.732422 5.71016 0.732422 11.0142C0.732422 15.8082 4.32242 19.7812 9.01642 20.5012V13.7902H6.52342V11.0142H9.01642V8.89816C9.01642 6.49116 10.4824 5.16216 12.7244 5.16216C13.4606 5.1722 14.1952 5.23503 14.9224 5.35016V7.71316H13.6844C12.4644 7.71316 12.0844 8.45316 12.0844 9.21316V11.0152H14.8074L14.3724 13.7912H12.0844V20.5022C16.7784 19.7822 20.3684 15.8082 20.3684 11.0152V11.0142Z" fill="black"/>
</g>
<defs>
<clipPath id="clip0_4340_7381">
<rect width="20" height="20" fill="white" transform="translate(0.666016 0.5)"/>
</clipPath>
</defs>
</svg>
