<svg width="113" height="22" viewBox="0 0 113 22" fill="none" xmlns="http://www.w3.org/2000/svg">
<path d="M11.04 5.6C12.56 5.6 14 6.4 14.8 7.52L14.88 7.6C14.92 7.64 14.96 7.68 14.96 7.72C15.48 8.4 16.32 8.8 17.24 8.8C18.84 8.8 20.16 7.48 20.16 5.88C20.16 5.12 19.88 4.44 19.4 3.92C17.4 1.44 15 0 11 0C4.72 0 0 4.36 0 10.48C0 16.68 4.72 21.04 11.04 21.04C15.08 21.04 17.44 19.64 19.44 17.4C19.88 16.88 20.16 16.24 20.16 15.52C20.16 13.92 18.88 12.64 17.28 12.64C16.4 12.64 15.64 13.04 15.12 13.64C14.16 14.6 13.08 15.52 11.08 15.52C8.2 15.52 6.56 13.44 6.56 10.48C6.52 7.64 8.12 5.6 11.04 5.6ZM38.28 1.32C37.28 0.800001 36.6 0.68 35.12 0.8C32.48 1.04 30.44 2.88 30.08 3.32C29.96 1.64 28.56 0.28 26.84 0.28C25.04 0.28 23.6 1.72 23.56 3.48V17.76C23.6 19.52 25.04 20.92 26.84 20.92C28.64 20.92 30.08 19.48 30.12 17.72V13.84C30.12 8.56 33.2 7.2 34.92 7.16C35.36 7.16 36.52 7.6 37.44 7.44C39.24 7.12 40.4 5.4 40.08 3.64C39.84 2.6 39.16 1.76 38.28 1.32ZM52.6 15.68C55.44 15.68 57.12 13.6 57.16 10.6C57.16 7.56 55.44 5.52 52.6 5.52C49.76 5.52 48 7.56 48 10.6C48 13.56 49.76 15.68 52.6 15.68ZM52.6 0C58.84 0 63.68 4.4 63.68 10.56C63.68 16.68 58.84 21.04 52.6 21.04C46.36 21.04 41.48 16.68 41.48 10.56C41.48 4.4 46.36 0 52.6 0ZM78.08 5.6C79.6 5.6 81.04 6.4 81.84 7.52L81.92 7.6C81.96 7.64 82 7.68 82 7.72C82.52 8.4 83.36 8.8 84.28 8.8C85.88 8.8 87.2 7.48 87.2 5.88C87.2 5.12 86.92 4.44 86.44 3.92C84.44 1.44 82.04 0 78.08 0C71.8 0 67.04 4.36 67.04 10.48C67.04 16.68 71.76 21.04 78.08 21.04C82.12 21.04 84.48 19.64 86.48 17.4C86.92 16.88 87.2 16.24 87.2 15.52C87.2 13.92 85.92 12.64 84.32 12.64C83.44 12.64 82.68 13.04 82.16 13.64C81.2 14.6 80.12 15.52 78.08 15.52C75.2 15.52 73.56 13.44 73.56 10.48C73.6 7.64 75.2 5.6 78.08 5.6ZM100.52 8C103.44 8.68 107.12 10.04 107.12 14.36C107.12 18.04 105.2 21.08 98.84 21.08C94.96 21.08 92.44 19.88 90.68 18.32L90.56 18.2C90.48 18.16 90.44 18.08 90.4 18.04C90.36 18 90.32 17.92 90.28 17.88C90.2 17.8 90.16 17.72 90.12 17.64C90.12 17.64 90.08 17.6 90.08 17.56C89.56 16.6 89.68 15.4 90.48 14.6C91.44 13.6 93.04 13.56 94.04 14.48L94 14.44C95.28 15.44 96.8 16.04 98.44 16.04C100.52 16.04 101.2 15.64 101.2 14.8C101.2 13.68 99.92 13.68 96.64 12.84C93.88 12.12 90.8 10.6 90.8 6.4C90.8 1.84 94.28 0 98.6 0C101.92 0 104.28 1.08 105.92 2.76C106.44 3.2 106.76 3.88 106.76 4.6C106.76 6 105.64 7.12 104.24 7.12C103.56 7.12 102.96 6.88 102.52 6.44C101.56 5.64 100.16 4.92 98.64 4.92C97.2 4.92 96.48 5.32 96.48 6.12C96.48 7.24 97.76 7.4 100.52 8ZM109.28 1V0.48H107.16V1H107.92V3.08H108.56V1H109.28ZM112.04 3.08V1.24L111.36 3.08H110.92L110.24 1.24V3.08H109.64V0.48H110.52L111.16 2.2L111.8 0.48H112.64V3.08H112.04Z" fill="black"/>
</svg>
