<svg width="20" height="21" viewBox="0 0 20 21" fill="none" xmlns="http://www.w3.org/2000/svg">
<g clip-path="url(#clip0_4340_7379)">
<path fill-rule="evenodd" clip-rule="evenodd" d="M10 0.5H11.03C12.83 0.5 13.21 0.52 14.13 0.56C17.76 0.73 19.78 2.75 19.94 6.38L19.96 6.8V7C19.99 7.63 20 8.24 20 9.95V11.05C20 13.27 19.98 13.63 19.94 14.62C19.78 18.26 17.75 20.27 14.12 20.44C13.21 20.48 12.82 20.5 11.02 20.5H8.98C7.18 20.5 6.8 20.48 5.88 20.44C2.25 20.27 0.24 18.25 0.07 14.62L0.04 14.01V13.81C0 13.33 0 12.8 0 11.75V9.25C0 7.64 0.02 7.25 0.06 6.38C0.23 2.74 2.25 0.73 5.88 0.56C6.79 0.52 7.18 0.5 8.98 0.5H10ZM10.8 2.3H9.2C7.98 2.3 7.39 2.31 6.88 2.32L6.68 2.33L5.96 2.36C3.25 2.48 1.98 3.77 1.86 6.46C1.82 7.4 1.8 7.76 1.8 9.69V11.31C1.8 13.25 1.82 13.61 1.86 14.54C1.98 17.23 3.24 18.52 5.96 18.64L6.49 18.66L6.69 18.67C7.17 18.69 7.68 18.7 8.74 18.7H11.26C12.32 18.7 12.83 18.69 13.32 18.67H13.52L14.04 18.64C16.75 18.52 18.02 17.23 18.14 14.54C18.18 13.6 18.2 13.25 18.2 11.31V9.69C18.2 7.75 18.18 7.39 18.14 6.46C18.02 3.77 16.75 2.48 14.04 2.36L13.41 2.33H13.21C12.69 2.31 12.11 2.3 10.81 2.3H10.8ZM10 5.36C10.675 5.36 11.3434 5.49295 11.967 5.75126C12.5906 6.00957 13.1572 6.38818 13.6345 6.86547C14.1118 7.34276 14.4904 7.90939 14.7487 8.53301C15.0071 9.15662 15.14 9.82501 15.14 10.5C15.14 11.175 15.0071 11.8434 14.7487 12.467C14.4904 13.0906 14.1118 13.6572 13.6345 14.1345C13.1572 14.6118 12.5906 14.9904 11.967 15.2487C11.3434 15.5071 10.675 15.64 10 15.64C8.63679 15.64 7.32941 15.0985 6.36547 14.1345C5.40153 13.1706 4.86 11.8632 4.86 10.5C4.86 9.13679 5.40153 7.82941 6.36547 6.86547C7.32941 5.90153 8.63679 5.36 10 5.36ZM10 7.16C9.1155 7.16 8.26723 7.51137 7.6418 8.1368C7.01637 8.76223 6.665 9.6105 6.665 10.495C6.665 11.3795 7.01637 12.2278 7.6418 12.8532C8.26723 13.4786 9.1155 13.83 10 13.83C10.8832 13.83 11.7302 13.4792 12.3547 12.8547C12.9792 12.2302 13.33 11.3832 13.33 10.5C13.33 9.61683 12.9792 8.76983 12.3547 8.14533C11.7302 7.52084 10.8832 7.17 10 7.17V7.16ZM15.34 3.96C16 3.96 16.54 4.5 16.54 5.16V5.29C16.5149 5.52013 16.4238 5.73809 16.2777 5.91761C16.1315 6.09713 15.9365 6.23054 15.7163 6.30177C15.496 6.37299 15.2598 6.37899 15.0363 6.31903C14.8127 6.25907 14.6112 6.13572 14.4561 5.96385C14.301 5.79197 14.199 5.57891 14.1623 5.35035C14.1255 5.12179 14.1557 4.88749 14.2491 4.67568C14.3426 4.46388 14.4952 4.28362 14.6888 4.15664C14.8824 4.02965 15.1085 3.96136 15.34 3.96Z" fill="black"/>
</g>
<defs>
<clipPath id="clip0_4340_7379">
<rect y="0.5" width="20" height="20" rx="6" fill="white"/>
</clipPath>
</defs>
</svg>
