<svg width="23" height="21" viewBox="0 0 23 21" fill="none" xmlns="http://www.w3.org/2000/svg">
<g clip-path="url(#clip0_4340_7383)">
<path d="M11.214 0C17.224 0 22.104 4.02 22.104 8.97C22.104 13.93 17.224 17.94 11.214 17.94C10.554 17.94 9.91398 17.89 9.28398 17.8L9.11398 17.93C8.17398 18.62 5.00398 20.93 4.68398 20.98C4.68398 20.98 4.54398 21.04 4.42398 20.96C4.30398 20.89 4.32398 20.7 4.32398 20.7C4.36398 20.44 5.26398 17.17 5.43398 16.57C2.37398 15 0.333984 12.17 0.333984 8.97C0.333984 4.02 5.20398 0 11.214 0ZM6.78398 6.28H3.58398C3.50125 6.2813 3.41958 6.29889 3.34364 6.33176C3.2677 6.36463 3.19899 6.41214 3.14141 6.47157C3.08384 6.531 3.03854 6.60119 3.00809 6.67814C2.97765 6.75508 2.96266 6.83726 2.96398 6.92C2.96398 7.28 3.23398 7.57 3.57398 7.57H4.55398V11.47C4.57327 11.6222 4.64739 11.762 4.76245 11.8634C4.87752 11.9648 5.02562 12.0208 5.17898 12.0208C5.33235 12.0208 5.48045 11.9648 5.59551 11.8634C5.71058 11.762 5.7847 11.6222 5.80398 11.47V7.57H6.78398C7.12398 7.57 7.40398 7.27 7.40398 6.92C7.40531 6.83726 7.39032 6.75508 7.35988 6.67814C7.32943 6.60119 7.28413 6.531 7.22656 6.47157C7.16898 6.41214 7.10026 6.36463 7.02433 6.33176C6.94839 6.29889 6.86672 6.2813 6.78398 6.28ZM8.88398 6.28C8.48398 6.29 8.16398 6.61 8.05398 6.93L6.55398 11.07C6.36398 11.69 6.53398 11.92 6.70398 12C6.83398 12.06 6.96398 12.1 7.10398 12.1C7.36398 12.1 7.56398 11.98 7.62398 11.8L7.93398 10.95H9.84398L10.154 11.8C10.214 11.98 10.414 12.1 10.684 12.1C10.814 12.1 10.954 12.06 11.084 12C11.254 11.92 11.414 11.69 11.224 11.07L9.73398 6.93C9.63398 6.61 9.31398 6.29 8.90398 6.28H8.88398ZM15.714 6.28C15.374 6.28 15.094 6.58 15.094 6.94V11.44C15.094 11.8 15.374 12.09 15.714 12.09C16.064 12.09 16.344 11.79 16.344 11.44V10L16.564 9.77L18.034 11.82C18.0815 11.8885 18.1426 11.9465 18.2135 11.9904C18.2843 12.0343 18.3634 12.0633 18.4458 12.0755C18.5283 12.0877 18.6124 12.0828 18.6929 12.0612C18.7734 12.0396 18.8487 12.0018 18.914 11.95C19.044 11.85 19.134 11.68 19.154 11.51C19.1783 11.3373 19.1353 11.1619 19.034 11.02L17.494 8.88L18.924 7.38C19.024 7.28 19.064 7.14 19.054 6.98C19.054 6.83 18.984 6.68 18.874 6.56C18.8188 6.50101 18.7523 6.45378 18.6784 6.42113C18.6045 6.38848 18.5248 6.37109 18.444 6.37C18.3785 6.3698 18.3137 6.38301 18.2535 6.40881C18.1933 6.4346 18.139 6.47244 18.094 6.52L16.344 8.35V6.94C16.3466 6.85512 16.3324 6.77056 16.302 6.69125C16.2717 6.61193 16.2259 6.53945 16.1672 6.47802C16.1086 6.41659 16.0383 6.36745 15.9605 6.33345C15.8827 6.29946 15.7989 6.28129 15.714 6.28ZM12.274 6.28C11.924 6.28 11.634 6.58 11.634 6.94V11.4C11.634 11.74 11.904 12 12.234 12H14.244C14.4031 12 14.5557 11.9368 14.6682 11.8243C14.7808 11.7117 14.844 11.5591 14.844 11.4C14.844 11.2409 14.7808 11.0883 14.6682 10.9757C14.5557 10.8632 14.4031 10.8 14.244 10.8H12.914V6.94C12.9153 6.85464 12.8998 6.76985 12.8684 6.69048C12.8369 6.61111 12.7901 6.53872 12.7307 6.47743C12.6713 6.41614 12.6003 6.36716 12.522 6.33328C12.4436 6.29941 12.3593 6.2813 12.274 6.28ZM8.89398 7.92L9.51398 9.79H8.26398L8.89398 7.92Z" fill="black"/>
</g>
<defs>
<clipPath id="clip0_4340_7383">
<rect width="22" height="21" fill="white" transform="translate(0.333984)"/>
</clipPath>
</defs>
</svg>
