<svg width="20" height="15" viewBox="0 0 20 15" fill="none" xmlns="http://www.w3.org/2000/svg">
<g clip-path="url(#clip0_4340_7385)">
<path fill-rule="evenodd" clip-rule="evenodd" d="M10.2403 0.5C11.4203 0.5 16.4403 0.55 17.8103 0.92C18.6703 1.15 19.3503 1.82 19.5803 2.69C19.9603 4.14 20.0003 7.07 20.0003 7.46V7.59C20.0101 9.17308 19.8695 10.7535 19.5803 12.31C19.4654 12.7327 19.2413 13.1178 18.9307 13.4267C18.6201 13.7356 18.2337 13.9574 17.8103 14.07C16.3603 14.46 10.8703 14.49 10.0903 14.49H9.90032C9.13032 14.49 3.63032 14.46 2.19032 14.08C1.76455 13.9657 1.37657 13.7409 1.06572 13.4283C0.754873 13.1157 0.532215 12.7264 0.420324 12.3C0.132948 10.7702 -0.00769036 9.21651 0.000324107 7.66V7.34C0.000324107 6.66 0.0603241 4.04 0.420324 2.69C0.533755 2.26543 0.757098 1.87826 1.06784 1.56752C1.37859 1.25677 1.76576 1.03343 2.19032 0.92C3.56032 0.55 8.57032 0.5 9.75032 0.5H10.2403ZM8.00032 4.5V10.5L13.2003 7.5L8.00032 4.5Z" fill="black"/>
</g>
<defs>
<clipPath id="clip0_4340_7385">
<rect width="20" height="14" fill="white" transform="translate(0 0.5)"/>
</clipPath>
</defs>
</svg>
